PathFileType	4	(X/Y/Z)	 s10c0202.trc
DataRate	CameraRate	NumFrames	NumMarkers	Units	OrigDataRate	OrigDataStartFrame	OrigNumFrames
200	200	6	50	mm	200	251	2000
Frame#	Time	racr			lacr			c7			jug			rlel			rdr			llel			ldr			s2			lic			ric			lasi			rasi			rpsi			lpsi			rgt			lgt			rth1			rth2			rth3			rth4			rlfc			rmfc			rsh1			rsh2			rsh3			rsh4			rlmal			rmmal			rcal			rtoe			rmt5			lth1			lth2			lth4			lth3			llfc			lmfc			llmal			lmmal			lcal			lmt5			lsh1			lsh2			lsh3			lsh4			ltoe			SBIKE			LBIKE			RBIKE			
		X1	Y1	Z1	X2	Y2	Z2	X3	Y3	Z3	X4	Y4	Z4	X5	Y5	Z5	X6	Y6	Z6	X7	Y7	Z7	X8	Y8	Z8	X9	Y9	Z9	X10	Y10	Z10	X11	Y11	Z11	X12	Y12	Z12	X13	Y13	Z13	X14	Y14	Z14	X15	Y15	Z15	X16	Y16	Z16	X17	Y17	Z17	X18	Y18	Z18	X19	Y19	Z19	X20	Y20	Z20	X21	Y21	Z21	X22	Y22	Z22	X23	Y23	Z23	X24	Y24	Z24	X25	Y25	Z25	X26	Y26	Z26	X27	Y27	Z27	X28	Y28	Z28	X29	Y29	Z29	X30	Y30	Z30	X31	Y31	Z31	X32	Y32	Z32	X33	Y33	Z33	X34	Y34	Z34	X35	Y35	Z35	X36	Y36	Z36	X37	Y37	Z37	X38	Y38	Z38	X39	Y39	Z39	X40	Y40	Z40	X41	Y41	Z41	X42	Y42	Z42	X43	Y43	Z43	X44	Y44	Z44	X45	Y45	Z45	X46	Y46	Z46	X47	Y47	Z47	X48	Y48	Z48	X49	Y49	Z49	X50	Y50	Z50	
251	1.2550	384.076465	1322.013683	-37.348817	407.338540	1332.175274	-358.310118	386.850511	1353.773811	-200.087318	413.625624	1216.013259	-192.687777	458.558676	1074.968718	43.352304	617.728153	911.263455	-1.369450	478.223694	1070.553376	-447.728173	636.028263	907.669064	-390.683393	-100.040727	1095.173349	-235.156511	79.429862	1090.490133	-368.832498	69.382760	1102.439413	-87.288803	97.809186	1000.506563	-338.730306	65.034985	1036.811130	-85.320087	-61.260093	1152.182341	-179.977166	-41.359931	1151.197325	-286.963483	-59.499144	1027.566785	-31.331422	-27.468695	961.184401	-414.867943	36.361249	948.625323	12.765909	125.477301	952.240447	15.181641	200.266081	912.014507	26.811070	133.499633	986.876742	1.680048	316.477142	874.699833	22.726493	328.413641	864.979162	-96.160450	254.779879	771.096044	29.735218	246.651616	685.785672	5.028815	197.019972	618.205996	-15.663578	278.145642	680.840736	-16.300435	165.426486	523.393326	-49.162705	196.185071	549.277456	-122.604398	116.020731	503.618276	-99.292565	357.335810	481.316141	-81.868891	271.388705	455.521370	-25.186076	43.275984	849.160232	-424.577867	115.484525	801.956588	-411.848175	141.400606	826.698058	-401.758148	153.962128	722.257527	-401.186427	218.626153	634.150095	-379.128528	215.840311	628.098866	-260.449176	12.830961	320.605757	-376.031659	27.464637	313.117049	-298.007578	-46.098946	318.163123	-333.907323	75.751725	188.745255	-395.791340	132.140218	546.315028	-408.676567	118.396072	460.222475	-397.161163	60.085160	392.574375	-392.781837	145.200168	450.867017	-371.661506	159.441096	170.600433	-336.170878	-204.891264	833.236157	-224.425932	-78.238815	81.693484	-423.619552	-102.731687	80.550139	-24.511029	
252	1.2600	384.980455	1321.774881	-36.943424	408.114675	1332.047689	-357.674691	387.397581	1353.386261	-199.589603	413.801282	1215.561444	-192.427314	457.800617	1074.317326	44.397327	617.528356	911.495050	-1.687057	477.878574	1070.278947	-447.913499	636.149085	907.789065	-391.029500	-100.094477	1095.121312	-235.262848	79.392284	1090.898686	-368.974807	69.099723	1102.828299	-86.941869	97.950768	1000.880367	-338.801639	64.869735	1037.079990	-85.480751	-61.295438	1152.302888	-180.139837	-41.084467	1151.482721	-287.143802	-59.599382	1027.642486	-31.517660	-27.336267	961.279487	-414.977589	36.498656	948.953699	12.301004	125.633905	952.469637	14.617288	200.418053	912.337961	26.399801	133.745811	987.217772	1.370269	316.609275	874.882775	22.254066	328.614215	865.059617	-96.726801	255.008133	771.345447	29.413481	246.814136	686.007727	4.827534	197.141520	618.467938	-15.788086	278.257152	680.972318	-16.519908	165.429439	523.589112	-49.100062	196.283143	549.475382	-122.593901	115.999668	503.766405	-99.221751	357.284240	481.385249	-81.846716	271.347203	455.614212	-25.158833	43.338101	849.252438	-424.828536	115.514120	802.028376	-412.098839	141.433036	826.734345	-402.011142	153.965019	722.288084	-401.481041	218.578276	634.098200	-379.565338	215.889416	627.973579	-260.910125	13.007263	320.498531	-376.143217	27.511770	313.107040	-298.034944	-45.870789	318.105849	-333.894799	75.885273	188.615541	-395.765861	132.061297	546.177939	-409.045585	118.375375	460.067487	-397.450952	60.143903	392.446687	-392.913491	145.269004	450.743624	-372.001231	159.557669	170.438613	-336.129918	-204.904357	833.238390	-224.411408	-78.214208	81.722549	-423.597669	-102.692910	80.514903	-24.485423	
253	1.2650	385.998895	1321.435341	-36.596882	408.884366	1331.936831	-356.900930	387.976616	1352.926823	-199.121550	413.983387	1215.016864	-192.206306	456.985618	1073.491914	45.495212	617.321957	911.634888	-2.009117	477.487951	1069.994172	-448.114750	636.262228	907.933388	-391.502838	-100.137833	1095.149399	-235.411208	79.384441	1091.278547	-369.040611	68.820787	1103.113078	-86.679881	98.125057	1001.312198	-338.815363	64.609308	1037.440267	-85.692761	-61.314517	1152.504460	-180.251136	-41.175766	1151.610492	-287.206610	-59.683400	1027.722504	-31.650470	-27.183147	961.393350	-415.110150	36.719064	949.273370	11.756489	125.842650	952.708005	13.990897	200.526864	912.529697	25.945804	133.947445	987.405195	0.828688	316.735464	874.986024	21.648929	328.828725	865.058725	-97.430464	255.298058	771.526547	29.001496	246.998895	686.219540	4.545642	197.214008	618.602865	-15.908896	278.355617	681.008620	-16.776175	165.432565	523.654162	-49.051739	196.266221	549.520074	-122.571116	115.960528	503.771359	-99.149162	357.270924	481.412413	-81.825127	271.331374	455.639559	-25.111973	43.392434	849.368217	-425.418074	115.592647	802.103003	-412.371211	141.509710	826.770107	-402.263475	153.999440	722.326111	-401.842323	218.565161	634.063571	-380.098391	215.936668	627.904542	-261.367815	13.159006	320.447393	-376.198425	27.592175	313.100832	-298.084514	-45.671368	318.171051	-333.915982	75.959377	188.550531	-395.721150	132.010013	546.049006	-409.452573	118.401142	459.922893	-397.723567	60.232989	392.275266	-393.037905	145.346887	450.690680	-372.305136	159.594579	170.288466	-336.089147	-204.897897	833.237001	-224.403256	-78.204242	81.705587	-423.588774	-102.705939	80.561055	-24.474064	
254	1.2700	387.110567	1321.014649	-36.326236	409.865500	1331.888371	-356.002242	388.509644	1352.414409	-198.658818	414.205433	1214.347773	-191.803790	456.182128	1072.688167	46.757328	617.101736	911.808198	-2.304668	477.050032	1069.705582	-448.292742	636.340023	908.103774	-392.084033	-100.226147	1095.229293	-235.610605	79.373533	1091.587891	-369.115704	68.182531	1103.342630	-86.397799	98.297490	1001.722512	-338.831051	64.360622	1037.750233	-85.910850	-61.409121	1152.662029	-180.400234	-41.341136	1151.804390	-287.252527	-59.743058	1027.851165	-31.797300	-27.035889	961.494013	-415.238466	36.953006	949.643983	11.105260	126.082487	952.881713	13.253229	200.692761	912.648268	25.361410	134.213556	987.644698	0.179937	316.779547	875.014760	20.952047	329.010426	864.977009	-98.210972	255.579293	771.625308	28.583090	247.121546	686.278013	4.223833	197.243910	618.660920	-16.078492	278.431459	681.013906	-17.112138	165.449799	523.603656	-49.026251	196.236524	549.470787	-122.577575	115.950885	503.655876	-99.093889	357.282998	481.393044	-81.789469	271.370135	455.575352	-25.084777	43.472815	849.446443	-425.739972	115.666646	802.180519	-412.684618	141.588970	826.813804	-402.537001	154.074302	722.394050	-402.168286	218.573595	634.026171	-380.670869	216.068455	627.795586	-261.841833	13.271413	320.524236	-376.270583	27.676243	313.141951	-298.147101	-45.520998	318.364072	-333.965893	75.954206	188.577914	-395.714740	132.008746	545.941094	-409.857667	118.452024	459.819735	-398.007528	60.336290	392.173023	-393.175201	145.437680	450.654591	-372.577078	159.540361	170.178656	-336.071701	-204.899769	833.242099	-224.386924	-78.208858	81.731171	-423.573195	-102.702754	80.552332	-24.477033	
255	1.2750	388.383694	1320.549547	-35.979846	410.895803	1331.836070	-354.901386	389.142511	1351.871779	-198.052464	414.396436	1213.633694	-191.395230	455.213667	1071.730349	48.078719	616.872293	911.932374	-2.619599	476.654638	1069.443973	-448.422327	636.402246	908.228301	-392.783186	-100.338746	1095.320128	-235.770520	79.340264	1091.894915	-369.116712	67.761736	1103.604362	-86.186349	98.444557	1002.145703	-338.876807	64.148580	1038.079453	-86.187298	-61.564525	1152.788064	-180.579996	-41.493786	1152.016543	-287.306250	-59.738507	1028.105033	-31.927672	-26.882857	961.588276	-415.358853	37.203219	949.940843	10.321780	126.335406	953.055200	12.426580	200.842592	912.808981	24.636121	134.483428	987.919577	-0.499101	316.842611	874.962598	20.099886	329.160043	864.888450	-99.164181	255.866400	771.632317	28.043771	247.223303	686.247890	3.801051	197.305952	618.663694	-16.267105	278.575918	680.927226	-17.566373	165.492687	523.387438	-49.021875	196.151184	549.309501	-122.610168	115.998653	503.309522	-99.018847	357.391044	481.368033	-81.728288	271.502239	455.375851	-25.065027	43.540294	849.500995	-426.049738	115.752693	802.273698	-413.005555	141.669110	826.902172	-402.859232	154.165746	722.473267	-402.547550	218.620870	634.032703	-381.216045	216.301221	627.721821	-262.379813	13.351468	320.706031	-376.362319	27.825696	313.245517	-298.208657	-45.447053	318.631748	-333.950239	75.854165	188.743723	-395.741227	132.050506	545.893213	-410.268235	118.525020	459.787636	-398.238269	60.457342	392.092441	-393.286976	145.544813	450.664337	-372.876904	159.390870	170.148702	-336.067544	-204.914052	833.228953	-224.377908	-78.244405	81.688897	-423.575948	-102.722307	80.558341	-24.480876	
256	1.2800	389.728998	1319.901021	-35.721136	412.105422	1331.787117	-353.656703	389.700760	1351.213813	-197.433320	414.548192	1212.836696	-190.981458	454.216570	1070.700863	49.495810	616.697414	912.072627	-2.932170	476.256945	1069.157324	-448.512538	636.548486	908.301846	-393.620698	-100.428153	1095.440767	-235.971710	79.363010	1092.237485	-369.168571	67.296018	1103.865661	-86.044836	98.634690	1002.522559	-338.869989	63.894904	1038.289676	-86.571185	-61.766001	1152.895034	-180.783289	-41.705702	1152.167201	-287.434187	-59.832819	1028.339537	-32.109541	-26.725720	961.699349	-415.509095	37.527781	950.301993	9.538925	126.615437	953.238824	11.461343	201.040711	912.826256	23.831496	134.854075	988.045664	-1.314583	316.977710	874.792350	19.160326	329.297185	864.652598	-100.213426	256.193085	771.557984	27.363867	247.375080	686.057813	3.260166	197.334330	618.555136	-16.493418	278.732188	680.709010	-18.033752	165.664718	522.994019	-49.023333	196.161891	548.994979	-122.659912	116.121847	502.767258	-98.934557	357.559902	481.171453	-81.711093	271.720217	455.081764	-25.028427	43.664044	849.587491	-426.453068	115.869818	802.355456	-413.315610	141.776074	826.993993	-403.131863	154.331370	722.601915	-402.937011	218.728740	634.073505	-381.703521	216.498258	627.745364	-262.959949	13.411750	321.029166	-376.417655	27.366774	313.874632	-298.131861	-45.409714	319.137477	-333.958098	75.632044	188.976466	-395.719741	132.160098	545.911531	-410.672644	118.636404	459.814347	-398.462317	60.569826	392.123356	-393.404072	145.662935	450.722321	-373.124027	159.150982	170.191870	-336.075955	-204.901527	833.247152	-224.359357	-78.249337	81.712154	-423.604199	-102.762172	80.545492	-24.500075	
